<mxfile host="drawio-plugin" modified="2021-04-08T23:38:57.823Z" agent="5.0 (Windows NT 6.2; Win64; x64) AppleWebKit/537.36 (KHTML, like Gecko) Chrome/87.0.4280.141 Safari/537.36" etag="Vj0epNkNnlxbyq2K-L6L" version="13.7.9" type="embed"><diagram id="zltHORVRJTrpiA5doH67" name="Page-1"><mxGraphModel dx="270" dy="748" grid="1" gridSize="10" guides="1" tooltips="1" connect="1" arrows="1" fold="1" page="1" pageScale="1" pageWidth="850" pageHeight="1100" math="0" shadow="0"><root><mxCell id="0"/><mxCell id="1" parent="0"/><mxCell id="n4gTFDvPgb5RRleDdIbf-3" value="" style="edgeStyle=orthogonalEdgeStyle;rounded=0;orthogonalLoop=1;jettySize=auto;html=1;" parent="1" source="n4gTFDvPgb5RRleDdIbf-1" target="n4gTFDvPgb5RRleDdIbf-2" edge="1"><mxGeometry relative="1" as="geometry"/></mxCell><mxCell id="n4gTFDvPgb5RRleDdIbf-1" value="Capture: 0x84, 0x02" style="rounded=1;whiteSpace=wrap;html=1;" parent="1" vertex="1"><mxGeometry x="200" y="160" width="160" height="40" as="geometry"/></mxCell><mxCell id="n4gTFDvPgb5RRleDdIbf-10" value="" style="edgeStyle=orthogonalEdgeStyle;rounded=0;orthogonalLoop=1;jettySize=auto;html=1;" parent="1" source="n4gTFDvPgb5RRleDdIbf-2" target="n4gTFDvPgb5RRleDdIbf-9" edge="1"><mxGeometry relative="1" as="geometry"/></mxCell><mxCell id="n4gTFDvPgb5RRleDdIbf-2" value="Poll: 0x41, AND with 0x08" style="rounded=1;whiteSpace=wrap;html=1;" parent="1" vertex="1"><mxGeometry x="200" y="240" width="160" height="40" as="geometry"/></mxCell><mxCell id="n4gTFDvPgb5RRleDdIbf-7" value="" style="edgeStyle=orthogonalEdgeStyle;rounded=0;orthogonalLoop=1;jettySize=auto;html=1;" parent="1" source="n4gTFDvPgb5RRleDdIbf-4" target="n4gTFDvPgb5RRleDdIbf-5" edge="1"><mxGeometry relative="1" as="geometry"/></mxCell><mxCell id="n4gTFDvPgb5RRleDdIbf-4" value="Read: 0x3C, 0x00s until N bytes transferred" style="rounded=1;whiteSpace=wrap;html=1;" parent="1" vertex="1"><mxGeometry x="200" y="420" width="160" height="40" as="geometry"/></mxCell><mxCell id="3" style="edgeStyle=orthogonalEdgeStyle;rounded=0;orthogonalLoop=1;jettySize=auto;html=1;entryX=0.5;entryY=0;entryDx=0;entryDy=0;exitX=0.5;exitY=1;exitDx=0;exitDy=0;" parent="1" source="n4gTFDvPgb5RRleDdIbf-5" target="n4gTFDvPgb5RRleDdIbf-1" edge="1"><mxGeometry relative="1" as="geometry"><Array as="points"><mxPoint x="280" y="560"/><mxPoint x="180" y="560"/><mxPoint x="180" y="140"/><mxPoint x="280" y="140"/></Array></mxGeometry></mxCell><mxCell id="n4gTFDvPgb5RRleDdIbf-5" value="Clear: 0x84, 0x01" style="rounded=1;whiteSpace=wrap;html=1;" parent="1" vertex="1"><mxGeometry x="200" y="500" width="160" height="40" as="geometry"/></mxCell><mxCell id="n4gTFDvPgb5RRleDdIbf-8" style="edgeStyle=orthogonalEdgeStyle;rounded=0;orthogonalLoop=1;jettySize=auto;html=1;exitX=0.75;exitY=1;exitDx=0;exitDy=0;entryX=0.75;entryY=0;entryDx=0;entryDy=0;" parent="1" source="n4gTFDvPgb5RRleDdIbf-2" target="n4gTFDvPgb5RRleDdIbf-2" edge="1"><mxGeometry relative="1" as="geometry"><Array as="points"><mxPoint x="320" y="300"/><mxPoint x="410" y="300"/><mxPoint x="410" y="220"/><mxPoint x="320" y="220"/></Array></mxGeometry></mxCell><mxCell id="n4gTFDvPgb5RRleDdIbf-11" value="" style="edgeStyle=orthogonalEdgeStyle;rounded=0;orthogonalLoop=1;jettySize=auto;html=1;" parent="1" source="n4gTFDvPgb5RRleDdIbf-9" target="n4gTFDvPgb5RRleDdIbf-4" edge="1"><mxGeometry relative="1" as="geometry"/></mxCell><mxCell id="n4gTFDvPgb5RRleDdIbf-9" value="Get N bytes to transfer by reading: 0x44, 0x43, and 0x42" style="rounded=1;whiteSpace=wrap;html=1;" parent="1" vertex="1"><mxGeometry x="200" y="320" width="160" height="60" as="geometry"/></mxCell><mxCell id="4" value="Initialize: 0x00, 0x00" style="rounded=1;whiteSpace=wrap;html=1;" vertex="1" parent="1"><mxGeometry x="200" y="80" width="160" height="40" as="geometry"/></mxCell></root></mxGraphModel></diagram></mxfile>